<svg width="102" height="42" viewBox="0 0 102 42" xmlns="http://www.w3.org/2000/svg">
  <title>
    daynight
  </title>
  <g transform="translate(1 1)" fill="none" fill-rule="evenodd">
    <path d="M20 0h60m0 40H20" stroke="#AAD77B"/>
    <path d="M20 0C8.954 0 0 8.954 0 20s8.954 20 20 20" stroke="#AAD77B"/>
    <path d="M80 0c11.046 0 20 8.954 20 20s-8.954 20-20 20" stroke="#AAD77B"/>
    <path fill="#E7E19D" d="M23 33.6l-3.317 3.073-1.887-4.108-4.24 1.57-.173-4.518-4.518-.172 1.57-4.24-4.108-1.888L9.4 20l-3.073-3.317 4.108-1.887-1.57-4.24 4.518-.173.172-4.518 4.24 1.57 1.888-4.108L23 6.4l3.317-3.073 1.887 4.108 4.24-1.57.173 4.518 4.518.172-1.57 4.24 4.108 1.888L36.6 20l3.073 3.317-4.108 1.887 1.57 4.24-4.518.173-.172 4.518-4.24-1.57-1.888 4.108"/>
    <circle fill="#D8E7F1" cx="79" cy="20" r="15"/>
  </g>
</svg>
