<?xml version="1.0" encoding="UTF-8"?>
<svg width="232px" height="168px" viewBox="0 0 232 168" version="1.1" xmlns="http://www.w3.org/2000/svg" xmlns:xlink="http://www.w3.org/1999/xlink">
    <!-- Generator: Sketch 48.2 (47327) - http://www.bohemiancoding.com/sketch -->
    <title>pelotte</title>
    <desc>Created with Sketch.</desc>
    <defs></defs>
    <g id="Mobile-Portrait" stroke="none" stroke-width="1" fill="none" fill-rule="evenodd" transform="translate(-79.000000, -104.000000)">
        <g id="pelotte" transform="translate(82.000000, 107.000000)">
            <circle id="Oval-5" stroke="#DADADA" stroke-width="6" fill="#EFEFEF" cx="81" cy="81" r="81"></circle>
            <path d="M55,7 C55,10.6121832 56.6097879,15.0394606 59.8293638,20.2818324 C63.0489396,25.5242042 65.4391517,28.0960138 67,27.9972612" id="Path-16" stroke-opacity="0.446699502" stroke="#DADADA"></path>
            <path d="M36,15 C36,18.096157 37.6097879,21.8909663 40.8293638,26.3844278 C44.0489396,30.8778893 46.4391517,33.0822975 48,32.9976525" id="Path-16" stroke-opacity="0.662703804" stroke="#DADADA"></path>
            <path d="M37,128 C38.3622539,133.398544 45.3999727,139.630995 58.1131563,146.697352 C70.8263399,153.763709 83.7886211,158.531259 97,161" id="Path-18" stroke-opacity="0.829087409" stroke="#DBDBDB"></path>
            <path d="M33.2555423,135.641549 C31.1698963,135.842748 32.8200796,138.524643 38.2060922,143.687234 C43.5921049,148.849826 52.339811,154.320543 64.4492105,160.099385" id="Path-19" stroke="#DBDBDB"></path>
            <path d="M58,107 C66.6128341,114.356529 77.6964071,121.723291 91.2507189,129.100286 C104.805031,136.477281 119.091452,140.586193 134.109981,141.42702" id="Path-21" stroke-opacity="0.421082428" stroke="#DBDBDB"></path>
            <path d="M122.096145,60 C121.829197,57.2380288 122.11814,53.9046955 122.962974,50 C123.807807,46.0953045 124.82015,42.7619712 126,40" id="Path-26" stroke-opacity="0.845250226" stroke="#DADADA" transform="translate(124.000000, 50.000000) rotate(-3.000000) translate(-124.000000, -50.000000) "></path>
            <path d="M109.302622,66.4137022 C108.44266,64.0846663 108.312511,59.5753295 108.912176,52.8856918 C109.511842,46.1960542 110.567076,40.5674902 112.077879,36" id="Path-27" stroke-opacity="0.628651495" stroke="#DADADA"></path>
            <path d="M88.9772695,75.9584226 C88.4199735,70.4229147 88.6196222,62.5235185 89.5762156,52.260234 C90.5328091,41.9969494 91.9109963,35.2435633 93.7107774,32.0000757" id="Path-28" stroke-opacity="0.332172781" stroke="#DADADA" transform="translate(91.190159, 53.979249) rotate(-1.000000) translate(-91.190159, -53.979249) "></path>
            <path d="M130.847379,58.022904 C130.569568,55.5625572 130.92682,53.0040359 131.919136,50.3473401 C132.911452,47.6906444 134.261021,45.1321231 135.967841,42.6717762" id="Path-25" stroke="#DADADA" transform="translate(133.362036, 50.347340) rotate(-10.000000) translate(-133.362036, -50.347340) "></path>
            <path d="M139.910887,55.7330858 C140.132115,53.5325547 140.478627,51.8491649 140.950424,50.6829164 C141.422222,49.5166678 142.437716,47.833278 143.996908,45.632747" id="Path-23" stroke="#DADADA" transform="translate(141.953898, 50.682916) rotate(-8.000000) translate(-141.953898, -50.682916) "></path>
            <path d="M19,32 C19,33.405315 20.0251531,35.1277412 22.0754592,37.1672788 C24.1257654,39.2068164 25.647912,40.2073755 26.6418991,40.1689559" id="Path-16" stroke="#DADADA"></path>
            <path d="M26,25 C26,27.1659002 27.4756389,29.8205389 30.4269168,32.9639161 C33.3781947,36.1072933 35.5692224,37.6493754 37,37.5901624" id="Path-16" stroke-opacity="0.824841486" stroke="#DADADA"></path>
            <path d="M28,142 C51.3680816,110.831846 70.1408624,90.1802819 84.3183425,80.0453068 C98.4958225,69.9103317 122.389708,60.0610171 156,50.4973628" id="main2" stroke="#DCDADA" stroke-width="4"></path>
            <path d="M155.208705,50.4973628 C120.291181,36.190106 94.2216124,29.0364776 77,29.0364776 C59.7783876,29.0364776 36.1305854,36.190106 6.05659314,50.4973628" id="main1" stroke="#DCDADA" stroke-width="4"></path>
            <path d="M45.1742862,121.131506 C49.4933625,126.77035 58.1074697,133.264163 71.0166078,140.612944 C83.925746,147.961725 97.938018,152.425073 113.053424,154.002988" id="Path-20" stroke-opacity="0.554857337" stroke="#DBDBDB"></path>
            <path d="M130.071968,147.685359 C144.531859,140.84536 155.833316,137.737689 163.976339,138.362346 C198.843347,141.037016 191.076176,151.31944 211.523448,154.444754 C217.115318,155.299457 222.667016,153.046325 228.178542,147.685359 C228.165232,145.958469 227.583052,145.052338 226.432002,144.966965 C225.280952,144.881591 223.87865,145.55449 222.225096,146.98566 C218.589241,150.567154 214.311915,151.335213 209.39312,149.289838 C196.107943,143.765483 184.625986,133.735443 166.062328,133.735443 C152.155872,133.735443 142.299769,136.032625 136.494019,140.626988 L130.071968,147.685359 Z" id="Path-17" fill="#D8D8D8"></path>
        </g>
    </g>
</svg>